<svg width="41" height="41" viewBox="0 0 41 41" fill="none" xmlns="http://www.w3.org/2000/svg">
<g id="electrical-worker-svgrepo-com 1" clip-path="url(#clip0_6_122)">
<g id="Group">
<path id="Vector" d="M20.5485 22.9123C23.3083 22.9123 29.7968 19.591 29.7968 11.6327C29.7968 10.5227 29.7697 9.4505 29.6783 8.43731C29.5281 6.44307 29.1196 4.67567 28.1026 3.32112C26.7983 1.47846 24.5164 0.353271 20.5485 0.353271C16.5804 0.353271 14.2983 1.47857 12.9941 3.32158C11.9777 4.67533 11.5692 6.44146 11.4189 8.43433C11.3272 9.44844 11.3 10.5217 11.3 11.6328C11.3 19.591 17.7887 22.9123 20.5485 22.9123ZM23.5673 4.48555C23.2979 5.16631 23.163 5.50675 22.8935 6.18739C21.1537 5.69584 19.9431 5.69584 18.2033 6.18739C17.9338 5.50675 17.799 5.16631 17.5295 4.48555C19.7052 3.82686 21.3917 3.82698 23.5673 4.48555ZM12.676 9.90682C12.7823 10.1395 13.2349 11.0361 13.9359 11.1202C14.7413 11.2169 16.0782 8.26777 20.5484 8.26057C25.0186 8.26777 26.3555 11.2169 27.1609 11.1202C27.8617 11.0361 28.3145 10.1394 28.4208 9.90682C28.4425 10.4781 28.4505 11.0563 28.4505 11.6328C28.4505 15.5228 26.7328 17.9331 25.2919 19.27C23.4762 20.9547 21.4603 21.5661 20.5484 21.5661C19.6364 21.5661 17.6206 20.9547 15.8049 19.27C14.3639 17.9331 12.6462 15.5228 12.6462 11.6328C12.6462 11.0563 12.6543 10.478 12.676 9.90682Z" fill="#F8F8FF"/>
<path id="Vector_2" d="M37.7182 34.4803C37.246 31.5444 36.2741 27.7626 34.3245 26.4187C32.9931 25.5008 28.3481 23.0191 26.3646 21.9594L26.3303 21.9411C26.1036 21.8199 25.8266 21.8442 25.6245 22.0029C24.5855 22.8187 23.4472 23.3685 22.2415 23.637C22.0286 23.6844 21.8536 23.8358 21.7763 24.0397L20.5486 27.2761L19.3208 24.0397C19.2434 23.8358 19.0686 23.6844 18.8556 23.637C17.6498 23.3685 16.5116 22.8187 15.4726 22.0029C15.2702 21.8442 14.9935 21.8198 14.7668 21.9411C12.8067 22.9883 8.10499 25.5206 6.77847 26.4147C4.53416 27.9266 3.55277 33.3987 3.37878 34.4803C3.36162 34.5876 3.37157 34.6973 3.40783 34.7997C3.48814 35.0264 5.54793 40.3533 20.5486 40.3533C35.5493 40.3533 37.6091 35.0264 37.6894 34.7997C37.7254 34.6973 37.7355 34.5875 37.7182 34.4803ZM29.7933 32.0792L28.3456 35.274C28.3221 35.3257 28.2706 35.3581 28.215 35.3581C28.2078 35.3581 28.2007 35.3576 28.1935 35.3565C28.13 35.3468 28.0807 35.2963 28.0726 35.2326L27.806 33.1199H27.1401C27.1018 33.1199 27.0652 33.1046 27.0381 33.0773C27.0112 33.0503 26.9962 33.0133 26.9967 32.975L27.0288 29.7803C27.0296 29.7016 27.0936 29.6382 27.1723 29.6382H29.4295C29.475 29.6382 29.5179 29.6599 29.5449 29.6966C29.5719 29.733 29.58 29.7803 29.5667 29.8239L28.9358 31.8763H29.6625C29.7114 31.8763 29.7568 31.9012 29.7832 31.9421C29.8098 31.9832 29.8134 32.0348 29.7933 32.0792Z" fill="#F8F8FF"/>
</g>
</g>
<defs>
<clipPath id="clip0_6_122">
<rect width="40" height="40" fill="white" transform="translate(0.54834 0.353271)"/>
</clipPath>
</defs>
</svg>
